<?xml version="1.0" encoding="UTF-8"?>
<svg xmlns="http://www.w3.org/2000/svg" xmlns:xlink="http://www.w3.org/1999/xlink" width="667px" height="1000px" viewBox="0 0 667 1000" version="1.1">
<g id="surface1">
<path style=" stroke:none;fill-rule:nonzero;fill:rgb(10.196079%,73.725492%,99.607843%);fill-opacity:1;" d="M 333.5 500 C 333.5 407.953125 408.140625 333.332031 500.214844 333.332031 C 592.289062 333.332031 666.933594 407.953125 666.933594 500 C 666.933594 592.046875 592.289062 666.667969 500.214844 666.667969 C 408.140625 666.667969 333.5 592.046875 333.5 500 Z M 333.5 500 "/>
<path style=" stroke:none;fill-rule:nonzero;fill:rgb(3.921569%,81.176472%,51.372552%);fill-opacity:1;" d="M 0.0664062 833.332031 C 0.0664062 741.289062 74.707031 666.667969 166.785156 666.667969 L 333.5 666.667969 L 333.5 833.332031 C 333.5 925.382812 258.859375 1000 166.785156 1000 C 74.707031 1000 0.0664062 925.382812 0.0664062 833.332031 Z M 0.0664062 833.332031 "/>
<path style=" stroke:none;fill-rule:nonzero;fill:rgb(100%,44.705883%,38.431373%);fill-opacity:1;" d="M 333.5 0.00390625 L 333.5 333.332031 L 500.214844 333.332031 C 592.292969 333.332031 666.933594 258.714844 666.933594 166.667969 C 666.933594 74.617188 592.292969 0.00390625 500.214844 0.00390625 Z M 333.5 0.00390625 "/>
<path style=" stroke:none;fill-rule:nonzero;fill:rgb(94.901961%,30.588236%,11.764706%);fill-opacity:1;" d="M 0.0664062 166.667969 C 0.0664062 258.714844 74.707031 333.332031 166.785156 333.332031 L 333.5 333.332031 L 333.5 0 L 166.785156 0 C 74.707031 0 0.0664062 74.621094 0.0664062 166.667969 Z M 0.0664062 166.667969 "/>
<path style=" stroke:none;fill-rule:nonzero;fill:rgb(63.529414%,34.901962%,100%);fill-opacity:1;" d="M 0.0664062 500 C 0.0664062 592.046875 74.707031 666.667969 166.785156 666.667969 L 333.5 666.667969 L 333.5 333.332031 L 166.785156 333.332031 C 74.707031 333.332031 0.0664062 407.953125 0.0664062 500 Z M 0.0664062 500 "/>
</g>
</svg>
